<svg width="32" height="32" viewBox="0 0 32 32" fill="none" xmlns="http://www.w3.org/2000/svg">
<path d="M15.9993 29.3327C23.3631 29.3327 29.3327 23.3631 29.3327 15.9993C29.3327 8.63555 23.3631 2.66602 15.9993 2.66602C8.63555 2.66602 2.66602 8.63555 2.66602 15.9993C2.66602 23.3631 8.63555 29.3327 15.9993 29.3327Z" fill="url(#paint0_linear_3193_38385)"/>
<path d="M11.6914 16.9727L13.2746 21.3512C13.2746 21.3512 13.4723 21.7611 13.6839 21.7611C13.8955 21.7611 17.0462 18.484 17.0462 18.484L20.5488 11.7188L11.7476 15.8428L11.6914 16.9727Z" fill="#C8DAEA"/>
<path d="M13.7895 18.0977L13.4858 21.3249C13.4858 21.3249 13.3588 22.3139 14.3472 21.3249C15.3356 20.3359 16.2823 19.5736 16.2823 19.5736L13.7895 18.0977Z" fill="#A9C6D8"/>
<path d="M11.7195 17.1306L8.46616 16.0703C8.46616 16.0703 8.07775 15.9127 8.20239 15.555C8.2279 15.4808 8.28007 15.4182 8.43428 15.3098C9.15544 14.8072 21.7792 10.2698 21.7792 10.2698C21.9612 10.2059 22.157 10.192 22.3462 10.2298C22.3982 10.2459 22.445 10.2755 22.4819 10.3157C22.5188 10.3558 22.5443 10.405 22.556 10.4582C22.5785 10.5521 22.5879 10.6486 22.5838 10.7451C22.5838 10.8286 22.5728 10.9063 22.5653 11.028C22.4882 12.268 20.1885 21.5272 20.1885 21.5272C20.1885 21.5272 20.0511 22.0686 19.5578 22.0872C19.4363 22.0915 19.3152 22.0712 19.2017 22.0276C19.0882 21.984 18.9848 21.9178 18.8975 21.8332C17.9293 21.0002 14.5838 18.7521 13.8447 18.2576C13.8286 18.2461 13.8152 18.2313 13.8052 18.2142C13.7952 18.1971 13.7889 18.1781 13.7867 18.1585C13.7763 18.1063 13.8331 18.0425 13.8331 18.0425C13.8331 18.0425 19.658 12.8645 19.8128 12.3214C19.825 12.2796 19.7798 12.2588 19.7189 12.2767C19.3317 12.4193 12.625 16.6541 11.8847 17.1219C11.8311 17.1377 11.7745 17.1407 11.7195 17.1306V17.1306Z" fill="white"/>
<defs>
<linearGradient id="paint0_linear_3193_38385" x1="15.9993" y1="29.3327" x2="15.9993" y2="2.66602" gradientUnits="userSpaceOnUse">
<stop stop-color="#1D93D2"/>
<stop offset="1" stop-color="#38B0E3"/>
</linearGradient>
</defs>
</svg>
