<svg width="32" height="32" viewBox="0 0 32 32" fill="none" xmlns="http://www.w3.org/2000/svg">
<path d="M29.3327 7.56345C28.3516 7.99857 27.2972 8.29272 26.1904 8.42494C27.32 7.74786 28.1875 6.67567 28.596 5.39811C27.5389 6.02509 26.3681 6.4804 25.1218 6.72578C24.1239 5.66245 22.702 4.99805 21.1285 4.99805C18.1069 4.99805 15.6573 7.44762 15.6573 10.4689C15.6573 10.8978 15.7057 11.3152 15.799 11.7157C11.2521 11.4876 7.22081 9.30948 4.52243 5.99946C4.0515 6.80751 3.78174 7.74729 3.78174 8.74994C3.78174 10.648 4.74762 12.3226 6.21559 13.3037C5.31877 13.2753 4.47519 13.0292 3.73753 12.6194C3.73715 12.6422 3.73707 12.6651 3.73707 12.6882C3.73707 15.339 5.62291 17.5502 8.12573 18.0528C7.66661 18.1777 7.18328 18.2446 6.68434 18.2446C6.3318 18.2446 5.98907 18.2103 5.65501 18.1465C6.35123 20.32 8.37168 21.9018 10.7657 21.946C8.8933 23.4133 6.53432 24.288 3.9711 24.288C3.5295 24.288 3.09399 24.262 2.66602 24.2116C5.0872 25.7638 7.96294 26.6695 11.0525 26.6695C21.1157 26.6695 26.6186 18.333 26.6186 11.1033C26.6186 10.8661 26.6133 10.6302 26.6028 10.3956C27.6716 9.62419 28.5992 8.66059 29.3327 7.56345Z" fill="#1D9BF0"/>
</svg>
